<svg id="Création" xmlns="http://www.w3.org/2000/svg" viewBox="0 0 231 226"><title>Cerf2</title><line x1="140.8" y1="111.18" x2="140.8" y2="81.31" fill="none" stroke="#fff" stroke-linecap="round" stroke-linejoin="round"/><path d="M187,152.5" transform="translate(-34.5 -37)" fill="none" stroke="#fff" stroke-linecap="round" stroke-linejoin="round"/><polyline points="215.5 55.5 215.5 50.5 210.5 25.5 220.5 50.5 223.83 63.83" fill="none" stroke="#fff" stroke-linecap="round" stroke-linejoin="round"/><polyline points="215.5 58.83 215.5 70.5 205.5 75.5 200.5 40.5 195.5 20.5 180.5 0.5 190.5 20.5 195.5 45.5 195.5 70.5 190.5 80.5 180.5 90.5 150.5 105.5 140.5 80.5 150.5 115.5 130.5 135.5" fill="none" stroke="#fff" stroke-linecap="round" stroke-linejoin="round"/><polyline points="215.5 55.5 220.5 60.5 230.5 70.5 230.5 75.5 225.5 80.5 200.5 90.5 175.5 105.5 155.5 120.5 150.5 125.5 145.5 130.5 130.5 135.5" fill="none" stroke="#fff" stroke-linecap="round" stroke-linejoin="round"/><polyline points="215.5 58.83 210.5 50.5 215.5 55.5" fill="none" stroke="#fff" stroke-linecap="round" stroke-linejoin="round"/><polyline points="115.5 140.5 120.5 140.5 130.5 135.5 135.5 125.5 140.5 115.5 140.5 110.5 150.5 115.5 150.5 105.5" fill="none" stroke="#fff" stroke-linecap="round" stroke-linejoin="round"/><path d="M160,212.5" transform="translate(-34.5 -37)" fill="none" stroke="#fff" stroke-linecap="round" stroke-linejoin="round"/><polygon points="140.5 170.5 135.5 175.5 130.5 175.5 135.5 165.5 140.5 165.5 140.5 170.5" fill="none" stroke="#fff" stroke-linecap="round" stroke-linejoin="round"/><polyline points="115.5 195.5 120.5 195.5 125.5 200.5 125.5 210.5 120.5 220.5 115.5 220.5" fill="none" stroke="#fff" stroke-linecap="round" stroke-linejoin="round"/><path d="M175,152.5" transform="translate(-34.5 -37)" fill="none" stroke="#fff" stroke-linecap="round" stroke-linejoin="round"/><path d="M175,152.5" transform="translate(-34.5 -37)" fill="none" stroke="#fff" stroke-linecap="round" stroke-linejoin="round"/><line x1="200.5" y1="40.5" x2="195.5" y2="45.5" fill="none" stroke="#fff" stroke-linecap="round" stroke-linejoin="round"/><polyline points="205.5 75.5 220.5 75.5 215.5 70.5" fill="none" stroke="#fff" stroke-linecap="round" stroke-linejoin="round"/><polyline points="200.5 90.5 220.5 75.5 225.5 80.5 225.5 75.5 215.5 58.83" fill="none" stroke="#fff" stroke-linecap="round" stroke-linejoin="round"/><path d="M280,117.5" transform="translate(-34.5 -37)" fill="none" stroke="#fff" stroke-linecap="round" stroke-linejoin="round"/><polyline points="175.5 105.5 150.5 115.5 180.5 90.5 200.5 90.5 205.5 75.5 195.5 70.5 200.5 40.5 190.5 20.5" fill="none" stroke="#fff" stroke-linecap="round" stroke-linejoin="round"/><polyline points="170.5 120.5 165.5 130.5 160.5 145.5 160.5 155.5" fill="none" stroke="#fff" stroke-linecap="round" stroke-linejoin="round"/><polyline points="130.5 135.5 140.5 145.5 145.5 160.5 140.5 170.5" fill="none" stroke="#fff" stroke-linecap="round" stroke-linejoin="round"/><polyline points="165.5 130.5 145.5 130.5 160.5 145.5 140.5 145.5 145.5 130.5 165.5 120.5 170.5 120.5 185.5 110.5 175.5 130.5 165.5 145.5 160.5 155.5 155.5 160.5 150.5 160.5 145.5 165.5 140.5 170.5 140.5 175.5 140.5 185.5 135.5 200.5 130.5 210.5 125.5 220.5 120.5 225.5 115.5 225.5" fill="none" stroke="#fff" stroke-linecap="round" stroke-linejoin="round"/><polyline points="125.5 210.5 130.5 205.5 135.5 190.5 140.5 185.5 130.5 175.5 135.5 190.5 125.5 200.5 130.5 175.5" fill="none" stroke="#fff" stroke-linecap="round" stroke-linejoin="round"/><polyline points="140.5 165.5 140.5 145.5 150.5 160.5 160.5 145.5" fill="none" stroke="#fff" stroke-linecap="round" stroke-linejoin="round"/><path d="M165,187.5" transform="translate(-34.5 -37)" fill="none" stroke="#fff" stroke-linecap="round" stroke-linejoin="round"/><polyline points="125.5 200.5 120.5 190.5 120.5 185.5 120.5 175.5 125.5 160.5 115.5 150.5 120.5 140.5 130.5 150.5 140.5 145.5 120.5 175.5 130.5 175.5" fill="none" stroke="#fff" stroke-linecap="round" stroke-linejoin="round"/><path d="M245,222.5" transform="translate(-34.5 -37)" fill="none" stroke="#fff" stroke-linecap="round" stroke-linejoin="round"/><polyline points="125.5 160.5 130.5 150.5 135.5 165.5" fill="none" stroke="#fff" stroke-linecap="round" stroke-linejoin="round"/><path d="M155,177.5" transform="translate(-34.5 -37)" fill="none" stroke="#fff" stroke-linecap="round" stroke-linejoin="round"/><polyline points="120.5 225.5 120.5 220.5 125.5 220.5 130.5 205.5" fill="none" stroke="#fff" stroke-linecap="round" stroke-linejoin="round"/><line x1="90.2" y1="111.18" x2="90.2" y2="81.31" fill="none" stroke="#fff" stroke-linecap="round" stroke-linejoin="round"/><path d="M113,152.5" transform="translate(-34.5 -37)" fill="none" stroke="#fff" stroke-linecap="round" stroke-linejoin="round"/><polyline points="15.5 55.5 15.5 50.5 20.5 25.5 10.5 50.5 7.17 63.83" fill="none" stroke="#fff" stroke-linecap="round" stroke-linejoin="round"/><polyline points="15.5 58.83 15.5 70.5 25.5 75.5 30.5 40.5 35.5 20.5 50.5 0.5 40.5 20.5 35.5 45.5 35.5 70.5 40.5 80.5 50.5 90.5 80.5 105.5 90.5 80.5 80.5 115.5 100.5 135.5" fill="none" stroke="#fff" stroke-linecap="round" stroke-linejoin="round"/><polyline points="15.5 55.5 10.5 60.5 0.5 70.5 0.5 75.5 5.5 80.5 30.5 90.5 55.5 105.5 75.5 120.5 80.5 125.5 85.5 130.5 100.5 135.5" fill="none" stroke="#fff" stroke-linecap="round" stroke-linejoin="round"/><polyline points="15.5 58.83 20.5 50.5 15.5 55.5" fill="none" stroke="#fff" stroke-linecap="round" stroke-linejoin="round"/><polyline points="115.5 140.5 110.5 140.5 100.5 135.5 95.5 125.5 90.5 115.5 90.5 110.5 80.5 115.5 80.5 105.5" fill="none" stroke="#fff" stroke-linecap="round" stroke-linejoin="round"/><path d="M140,212.5" transform="translate(-34.5 -37)" fill="none" stroke="#fff" stroke-linecap="round" stroke-linejoin="round"/><polygon points="90.5 170.5 95.5 175.5 100.5 175.5 95.5 165.5 90.5 165.5 90.5 170.5" fill="none" stroke="#fff" stroke-linecap="round" stroke-linejoin="round"/><polyline points="115.5 195.5 110.5 195.5 105.5 200.5 105.5 210.5 110.5 220.5 115.5 220.5" fill="none" stroke="#fff" stroke-linecap="round" stroke-linejoin="round"/><path d="M125,152.5" transform="translate(-34.5 -37)" fill="none" stroke="#fff" stroke-linecap="round" stroke-linejoin="round"/><path d="M125,152.5" transform="translate(-34.5 -37)" fill="none" stroke="#fff" stroke-linecap="round" stroke-linejoin="round"/><line x1="30.5" y1="40.5" x2="35.5" y2="45.5" fill="none" stroke="#fff" stroke-linecap="round" stroke-linejoin="round"/><polyline points="25.5 75.5 10.5 75.5 15.5 70.5" fill="none" stroke="#fff" stroke-linecap="round" stroke-linejoin="round"/><polyline points="30.5 90.5 10.5 75.5 5.5 80.5 5.5 75.5 15.5 58.83" fill="none" stroke="#fff" stroke-linecap="round" stroke-linejoin="round"/><path d="M20,117.5" transform="translate(-34.5 -37)" fill="none" stroke="#fff" stroke-linecap="round" stroke-linejoin="round"/><polyline points="55.5 105.5 80.5 115.5 50.5 90.5 30.5 90.5 25.5 75.5 35.5 70.5 30.5 40.5 40.5 20.5" fill="none" stroke="#fff" stroke-linecap="round" stroke-linejoin="round"/><polyline points="60.5 120.5 65.5 130.5 70.5 145.5 70.5 155.5" fill="none" stroke="#fff" stroke-linecap="round" stroke-linejoin="round"/><polyline points="100.5 135.5 90.5 145.5 85.5 160.5 90.5 170.5" fill="none" stroke="#fff" stroke-linecap="round" stroke-linejoin="round"/><polyline points="65.5 130.5 85.5 130.5 70.5 145.5 90.5 145.5 85.5 130.5 65.5 120.5 60.5 120.5 45.5 110.5 55.5 130.5 65.5 145.5 70.5 155.5 75.5 160.5 80.5 160.5 85.5 165.5 90.5 170.5 90.5 175.5 90.5 185.5 95.5 200.5 100.5 210.5 105.5 220.5 110.5 225.5 115.5 225.5" fill="none" stroke="#fff" stroke-linecap="round" stroke-linejoin="round"/><polyline points="105.5 210.5 100.5 205.5 95.5 190.5 90.5 185.5 100.5 175.5 95.5 190.5 105.5 200.5 100.5 175.5" fill="none" stroke="#fff" stroke-linecap="round" stroke-linejoin="round"/><polyline points="90.5 165.5 90.5 145.5 80.5 160.5 70.5 145.5" fill="none" stroke="#fff" stroke-linecap="round" stroke-linejoin="round"/><path d="M135,187.5" transform="translate(-34.5 -37)" fill="none" stroke="#fff" stroke-linecap="round" stroke-linejoin="round"/><polyline points="105.5 200.5 110.5 190.5 110.5 185.5 110.5 175.5 105.5 160.5 115.5 150.5 110.5 140.5 100.5 150.5 90.5 145.5 110.5 175.5 100.5 175.5" fill="none" stroke="#fff" stroke-linecap="round" stroke-linejoin="round"/><path d="M55,222.5" transform="translate(-34.5 -37)" fill="none" stroke="#fff" stroke-linecap="round" stroke-linejoin="round"/><polyline points="105.5 160.5 100.5 150.5 95.5 165.5" fill="none" stroke="#fff" stroke-linecap="round" stroke-linejoin="round"/><path d="M145,177.5" transform="translate(-34.5 -37)" fill="none" stroke="#fff" stroke-linecap="round" stroke-linejoin="round"/><polyline points="110.5 225.5 110.5 220.5 105.5 220.5 100.5 205.5" fill="none" stroke="#fff" stroke-linecap="round" stroke-linejoin="round"/></svg>